<?xml version="1.0" standalone="no"?><svg xmlns="http://www.w3.org/2000/svg" viewBox="0 0 1440 320"><path fill="#ffffff" fill-opacity="1" d="M0,96L0,128L36.9,128L36.9,224L73.8,224L73.8,288L110.8,288L110.8,256L147.7,256L147.7,224L184.6,224L184.6,128L221.5,128L221.5,96L258.5,96L258.5,128L295.4,128L295.4,96L332.3,96L332.3,96L369.2,96L369.2,160L406.2,160L406.2,128L443.1,128L443.1,192L480,192L480,288L516.9,288L516.9,128L553.8,128L553.8,160L590.8,160L590.8,224L627.7,224L627.7,160L664.6,160L664.6,288L701.5,288L701.5,64L738.5,64L738.5,320L775.4,320L775.4,96L812.3,96L812.3,32L849.2,32L849.2,160L886.2,160L886.2,320L923.1,320L923.1,192L960,192L960,64L996.9,64L996.9,32L1033.8,32L1033.8,128L1070.8,128L1070.8,0L1107.7,0L1107.7,64L1144.6,64L1144.6,96L1181.5,96L1181.5,224L1218.5,224L1218.5,128L1255.4,128L1255.4,96L1292.3,96L1292.3,0L1329.2,0L1329.2,160L1366.2,160L1366.2,256L1403.1,256L1403.1,128L1440,128L1440,320L1403.1,320L1403.1,320L1366.2,320L1366.2,320L1329.2,320L1329.2,320L1292.3,320L1292.3,320L1255.4,320L1255.4,320L1218.5,320L1218.5,320L1181.5,320L1181.5,320L1144.6,320L1144.6,320L1107.7,320L1107.7,320L1070.8,320L1070.8,320L1033.8,320L1033.8,320L996.9,320L996.9,320L960,320L960,320L923.1,320L923.1,320L886.2,320L886.2,320L849.2,320L849.2,320L812.3,320L812.3,320L775.4,320L775.4,320L738.5,320L738.5,320L701.5,320L701.5,320L664.6,320L664.6,320L627.7,320L627.7,320L590.8,320L590.8,320L553.8,320L553.8,320L516.9,320L516.9,320L480,320L480,320L443.1,320L443.1,320L406.2,320L406.2,320L369.2,320L369.2,320L332.3,320L332.3,320L295.4,320L295.4,320L258.5,320L258.5,320L221.5,320L221.5,320L184.6,320L184.6,320L147.7,320L147.7,320L110.8,320L110.8,320L73.8,320L73.8,320L36.9,320L36.9,320L0,320L0,320Z"></path></svg>